<svg width="21" height="21" viewBox="0 0 23 23" fill="none" xmlns="http://www.w3.org/2000/svg">
<path d="M10.2469 22.1805C15.9061 22.1805 20.4938 17.7097 20.4938 12.1948C20.4938 6.6798 15.9061 2.20905 10.2469 2.20905C4.5877 2.20905 0 6.6798 0 12.1948C0 17.7097 4.5877 22.1805 10.2469 22.1805Z" fill="white"/>
<path d="M10.2469 21.6812C15.6231 21.6812 19.9815 17.4339 19.9815 12.1947C19.9815 6.95553 15.6231 2.70831 10.2469 2.70831C4.87064 2.70831 0.512329 6.95553 0.512329 12.1947C0.512329 17.4339 4.87064 21.6812 10.2469 21.6812Z" stroke="#00ADAA"/>
<path d="M4.09875 9.49859L9.83703 17.2655L21.8731 1.44312" stroke="#00ADAA" stroke-width="2" stroke-linecap="round"/>
</svg>
